<mxfile host="app.diagrams.net" modified="2024-06-27T12:50:54.463Z" agent="Mozilla/5.0 (Windows NT 10.0; Win64; x64) AppleWebKit/537.36 (KHTML, like Gecko) Chrome/126.0.0.0 Safari/537.36 Edg/126.0.0.0" etag="I86XieeDyKxYboFemeIp" version="24.6.3" type="github">
  <diagram name="Page-1" id="QW8ButjcjYElvHdGodtI">
    <mxGraphModel dx="1236" dy="573" grid="1" gridSize="10" guides="1" tooltips="1" connect="1" arrows="1" fold="1" page="1" pageScale="1" pageWidth="850" pageHeight="1100" math="0" shadow="0">
      <root>
        <mxCell id="0" />
        <mxCell id="1" parent="0" />
        <mxCell id="r367QrCglXSOTXEAo2pt-1" value="Start" style="ellipse;whiteSpace=wrap;html=1;" vertex="1" parent="1">
          <mxGeometry x="355" y="250" width="70" height="50" as="geometry" />
        </mxCell>
        <mxCell id="r367QrCglXSOTXEAo2pt-2" value="End" style="ellipse;whiteSpace=wrap;html=1;" vertex="1" parent="1">
          <mxGeometry x="680" y="250" width="80" height="50" as="geometry" />
        </mxCell>
        <mxCell id="r367QrCglXSOTXEAo2pt-3" value="Dữ liệu nến" style="shape=parallelogram;perimeter=parallelogramPerimeter;whiteSpace=wrap;html=1;fixedSize=1;" vertex="1" parent="1">
          <mxGeometry x="330" y="340" width="120" height="60" as="geometry" />
        </mxCell>
      </root>
    </mxGraphModel>
  </diagram>
</mxfile>
